<mxfile host="Electron" agent="Mozilla/5.0 (Windows NT 10.0; Win64; x64) AppleWebKit/537.36 (KHTML, like Gecko) draw.io/24.7.17 Chrome/128.0.6613.36 Electron/32.0.1 Safari/537.36" version="24.7.17">
  <diagram name="Trang-1" id="bMiknARZJnXVaoL8tnX3">
    <mxGraphModel dx="1434" dy="836" grid="1" gridSize="10" guides="1" tooltips="1" connect="1" arrows="1" fold="1" page="1" pageScale="1" pageWidth="827" pageHeight="1169" math="0" shadow="0">
      <root>
        <mxCell id="0" />
        <mxCell id="1" parent="0" />
        <mxCell id="c5IgZS8KUTy0unRA6LIm-13" style="edgeStyle=orthogonalEdgeStyle;rounded=0;orthogonalLoop=1;jettySize=auto;html=1;exitX=0.5;exitY=1;exitDx=0;exitDy=0;entryX=0.5;entryY=0;entryDx=0;entryDy=0;" parent="1" source="gOC3_Gfe7DvDGcyzSAZS-1" target="c5IgZS8KUTy0unRA6LIm-6" edge="1">
          <mxGeometry relative="1" as="geometry" />
        </mxCell>
        <object label="Start" start="" id="gOC3_Gfe7DvDGcyzSAZS-1">
          <mxCell style="ellipse;whiteSpace=wrap;html=1;fontSize=24;" parent="1" vertex="1">
            <mxGeometry x="320" y="40" width="120" height="60" as="geometry" />
          </mxCell>
        </object>
        <object label="end" start="" id="c5IgZS8KUTy0unRA6LIm-1">
          <mxCell style="ellipse;whiteSpace=wrap;html=1;fontSize=24;" parent="1" vertex="1">
            <mxGeometry x="310" y="740" width="120" height="60" as="geometry" />
          </mxCell>
        </object>
        <mxCell id="c5IgZS8KUTy0unRA6LIm-28" style="edgeStyle=orthogonalEdgeStyle;rounded=0;orthogonalLoop=1;jettySize=auto;html=1;exitX=0.5;exitY=1;exitDx=0;exitDy=0;entryX=0.5;entryY=0;entryDx=0;entryDy=0;" parent="1" source="c5IgZS8KUTy0unRA6LIm-3" target="c5IgZS8KUTy0unRA6LIm-10" edge="1">
          <mxGeometry relative="1" as="geometry" />
        </mxCell>
        <mxCell id="c5IgZS8KUTy0unRA6LIm-29" value="fales" style="edgeLabel;html=1;align=center;verticalAlign=middle;resizable=0;points=[];" parent="c5IgZS8KUTy0unRA6LIm-28" vertex="1" connectable="0">
          <mxGeometry x="-0.0049" relative="1" as="geometry">
            <mxPoint as="offset" />
          </mxGeometry>
        </mxCell>
        <mxCell id="c5IgZS8KUTy0unRA6LIm-3" value="a=b" style="rhombus;whiteSpace=wrap;html=1;" parent="1" vertex="1">
          <mxGeometry x="130" y="300" width="130" height="80" as="geometry" />
        </mxCell>
        <mxCell id="c5IgZS8KUTy0unRA6LIm-17" style="edgeStyle=orthogonalEdgeStyle;rounded=0;orthogonalLoop=1;jettySize=auto;html=1;exitX=0.5;exitY=1;exitDx=0;exitDy=0;entryX=0.5;entryY=0;entryDx=0;entryDy=0;" parent="1" source="c5IgZS8KUTy0unRA6LIm-4" target="c5IgZS8KUTy0unRA6LIm-8" edge="1">
          <mxGeometry relative="1" as="geometry" />
        </mxCell>
        <mxCell id="c5IgZS8KUTy0unRA6LIm-4" value="a&amp;gt;b" style="rhombus;whiteSpace=wrap;html=1;" parent="1" vertex="1">
          <mxGeometry x="320" y="300" width="130" height="80" as="geometry" />
        </mxCell>
        <mxCell id="c5IgZS8KUTy0unRA6LIm-18" style="edgeStyle=orthogonalEdgeStyle;rounded=0;orthogonalLoop=1;jettySize=auto;html=1;exitX=0.5;exitY=1;exitDx=0;exitDy=0;" parent="1" source="c5IgZS8KUTy0unRA6LIm-5" target="c5IgZS8KUTy0unRA6LIm-9" edge="1">
          <mxGeometry relative="1" as="geometry" />
        </mxCell>
        <mxCell id="c5IgZS8KUTy0unRA6LIm-5" value="b&amp;gt;a" style="rhombus;whiteSpace=wrap;html=1;" parent="1" vertex="1">
          <mxGeometry x="480" y="300" width="130" height="80" as="geometry" />
        </mxCell>
        <mxCell id="c5IgZS8KUTy0unRA6LIm-14" style="edgeStyle=orthogonalEdgeStyle;rounded=0;orthogonalLoop=1;jettySize=auto;html=1;exitX=0.5;exitY=1;exitDx=0;exitDy=0;entryX=0.5;entryY=0;entryDx=0;entryDy=0;" parent="1" source="c5IgZS8KUTy0unRA6LIm-6" target="c5IgZS8KUTy0unRA6LIm-4" edge="1">
          <mxGeometry relative="1" as="geometry" />
        </mxCell>
        <mxCell id="c5IgZS8KUTy0unRA6LIm-15" style="edgeStyle=orthogonalEdgeStyle;rounded=0;orthogonalLoop=1;jettySize=auto;html=1;exitX=1;exitY=0.5;exitDx=0;exitDy=0;entryX=0.5;entryY=0;entryDx=0;entryDy=0;" parent="1" source="c5IgZS8KUTy0unRA6LIm-6" target="c5IgZS8KUTy0unRA6LIm-5" edge="1">
          <mxGeometry relative="1" as="geometry" />
        </mxCell>
        <mxCell id="c5IgZS8KUTy0unRA6LIm-16" style="edgeStyle=orthogonalEdgeStyle;rounded=0;orthogonalLoop=1;jettySize=auto;html=1;exitX=0;exitY=0.5;exitDx=0;exitDy=0;entryX=0.5;entryY=0;entryDx=0;entryDy=0;" parent="1" source="c5IgZS8KUTy0unRA6LIm-6" target="c5IgZS8KUTy0unRA6LIm-3" edge="1">
          <mxGeometry relative="1" as="geometry" />
        </mxCell>
        <mxCell id="c5IgZS8KUTy0unRA6LIm-6" value="nhập ab&lt;div&gt;min&lt;/div&gt;" style="shape=parallelogram;perimeter=parallelogramPerimeter;whiteSpace=wrap;html=1;fixedSize=1;" parent="1" vertex="1">
          <mxGeometry x="325" y="180" width="120" height="60" as="geometry" />
        </mxCell>
        <mxCell id="c5IgZS8KUTy0unRA6LIm-8" value="min=b" style="rounded=0;whiteSpace=wrap;html=1;" parent="1" vertex="1">
          <mxGeometry x="325" y="470" width="120" height="60" as="geometry" />
        </mxCell>
        <mxCell id="c5IgZS8KUTy0unRA6LIm-9" value="min=a" style="rounded=0;whiteSpace=wrap;html=1;" parent="1" vertex="1">
          <mxGeometry x="510" y="470" width="120" height="60" as="geometry" />
        </mxCell>
        <mxCell id="c5IgZS8KUTy0unRA6LIm-30" style="edgeStyle=orthogonalEdgeStyle;rounded=0;orthogonalLoop=1;jettySize=auto;html=1;entryX=0;entryY=0.5;entryDx=0;entryDy=0;" parent="1" target="c5IgZS8KUTy0unRA6LIm-1" edge="1">
          <mxGeometry relative="1" as="geometry">
            <mxPoint x="299.72" y="780" as="targetPoint" />
            <mxPoint x="200" y="650" as="sourcePoint" />
            <Array as="points">
              <mxPoint x="200" y="650" />
              <mxPoint x="200" y="640" />
              <mxPoint x="205" y="640" />
              <mxPoint x="205" y="770" />
            </Array>
          </mxGeometry>
        </mxCell>
        <mxCell id="c5IgZS8KUTy0unRA6LIm-10" value="không hợp lệ" style="shape=parallelogram;perimeter=parallelogramPerimeter;whiteSpace=wrap;html=1;fixedSize=1;" parent="1" vertex="1">
          <mxGeometry x="140" y="580" width="120" height="60" as="geometry" />
        </mxCell>
        <mxCell id="c5IgZS8KUTy0unRA6LIm-11" value="hợp lệ" style="shape=parallelogram;perimeter=parallelogramPerimeter;whiteSpace=wrap;html=1;fixedSize=1;" parent="1" vertex="1">
          <mxGeometry x="340" y="580" width="120" height="60" as="geometry" />
        </mxCell>
        <mxCell id="c5IgZS8KUTy0unRA6LIm-12" value="" style="endArrow=classic;html=1;rounded=0;exitX=0.575;exitY=1.033;exitDx=0;exitDy=0;exitPerimeter=0;entryX=1;entryY=0.5;entryDx=0;entryDy=0;" parent="1" source="c5IgZS8KUTy0unRA6LIm-9" target="c5IgZS8KUTy0unRA6LIm-11" edge="1">
          <mxGeometry width="50" height="50" relative="1" as="geometry">
            <mxPoint x="-10" y="710" as="sourcePoint" />
            <mxPoint x="70" y="710" as="targetPoint" />
            <Array as="points">
              <mxPoint x="580" y="610" />
            </Array>
          </mxGeometry>
        </mxCell>
        <mxCell id="c5IgZS8KUTy0unRA6LIm-27" value="True" style="edgeLabel;html=1;align=center;verticalAlign=middle;resizable=0;points=[];" parent="c5IgZS8KUTy0unRA6LIm-12" vertex="1" connectable="0">
          <mxGeometry x="-0.6055" relative="1" as="geometry">
            <mxPoint as="offset" />
          </mxGeometry>
        </mxCell>
        <mxCell id="c5IgZS8KUTy0unRA6LIm-19" style="edgeStyle=orthogonalEdgeStyle;rounded=0;orthogonalLoop=1;jettySize=auto;html=1;exitX=0.5;exitY=1;exitDx=0;exitDy=0;entryX=0.392;entryY=0.067;entryDx=0;entryDy=0;entryPerimeter=0;" parent="1" source="c5IgZS8KUTy0unRA6LIm-8" target="c5IgZS8KUTy0unRA6LIm-11" edge="1">
          <mxGeometry relative="1" as="geometry">
            <Array as="points">
              <mxPoint x="385" y="555" />
              <mxPoint x="387" y="555" />
            </Array>
          </mxGeometry>
        </mxCell>
        <mxCell id="c5IgZS8KUTy0unRA6LIm-24" value="True" style="edgeLabel;html=1;align=center;verticalAlign=middle;resizable=0;points=[];" parent="c5IgZS8KUTy0unRA6LIm-19" vertex="1" connectable="0">
          <mxGeometry x="-0.0718" relative="1" as="geometry">
            <mxPoint as="offset" />
          </mxGeometry>
        </mxCell>
        <mxCell id="c5IgZS8KUTy0unRA6LIm-31" style="edgeStyle=orthogonalEdgeStyle;rounded=0;orthogonalLoop=1;jettySize=auto;html=1;exitX=0.5;exitY=1;exitDx=0;exitDy=0;entryX=0.625;entryY=0.033;entryDx=0;entryDy=0;entryPerimeter=0;" parent="1" source="c5IgZS8KUTy0unRA6LIm-11" target="c5IgZS8KUTy0unRA6LIm-1" edge="1">
          <mxGeometry relative="1" as="geometry" />
        </mxCell>
      </root>
    </mxGraphModel>
  </diagram>
</mxfile>
